<svg width="60" height="40" viewBox="0 0 60 40" fill="none" xmlns="http://www.w3.org/2000/svg">
<path d="M3 5.62385C3 10.4897 4.24326 15.2567 5.4759 20.0155M5.4759 20.0155C6.31989 23.2739 7.1589 26.5284 7.59046 29.8082C7.73995 30.9444 7.92231 35.8773 7.11353 32.1929C6.24982 28.2582 6.22326 24.1457 5.50389 20.1702C5.49453 20.1185 5.4852 20.067 5.4759 20.0155ZM5.4759 20.0155C4.43632 14.2642 3.76492 10.0986 7.07378 4.82896C8.37036 2.76404 8.59654 2.50843 10.9488 3.75587C14.8484 5.82379 16.8219 8.34643 17.2284 12.7778C17.4052 14.7043 17.5246 16.8595 15.7182 18.0638C14.4203 18.9291 12.7103 19.3491 11.3065 20.0113C10.8674 20.2184 7.06178 22.3444 7.33212 22.3959C10.5662 23.0119 14.393 21.4339 17.3874 23.2305C19.5112 24.5048 20.932 26.2521 21.1631 28.7947C21.5472 33.0196 17.8583 34.9513 14.5854 36.6442C12.4661 37.7404 6.93468 37.516 6.93468 34.2397M24.8196 19.2164C26.4291 22.1778 26.2504 25.2382 26.2504 28.5165M26.9658 11.347L25.1773 10.6316M34.1198 5.26614C35.31 11.6141 34.695 17.9424 35.3717 24.3036C35.471 25.2368 35.8343 28.8372 36.6236 29.2319M30.5427 17.0702C33.8341 17.0702 38.0847 17.7755 41.2737 16.7125M44.8506 16.7125C46.5429 21.2956 46.6391 25.2237 46.6391 30.0666C46.6391 32.4322 46.6486 29.2905 46.7981 28.5165C47.263 26.1099 47.982 23.4106 49.1232 21.2235C50.0731 19.4027 51.3501 16.3548 53.4354 16.3548C55.6288 16.3548 56.5295 18.7158 57.0124 20.6472" stroke="currentColor" stroke-width="3" stroke-linecap="round"/>
</svg>
